<?xml version="1.0" encoding="UTF-8"?>
<svg id="Capa_2" data-name="Capa 2" xmlns="http://www.w3.org/2000/svg" viewBox="0 0 585.63 439.49">
  <defs>
    <style>
      .cls-1 {
        letter-spacing: 0em;
      }

      .cls-2 {
        font-family: Gilroy-Bold, Gilroy-Bold;
        font-size: 104.77px;
        font-weight: 700;
      }

      .cls-2, .cls-3 {
        fill: #fff;
      }

      .cls-4 {
        letter-spacing: -.02em;
      }

      .cls-3 {
        stroke-width: 0px;
      }

      .cls-5 {
        letter-spacing: 0em;
      }
    </style>
  </defs>
  <g id="Capa_1-2" data-name="Capa 1">
    <g>
      <text class="cls-2" transform="translate(0 411.93)"><tspan x="0" y="0">lih</tspan><tspan class="cls-4" x="112.21" y="0">t</tspan><tspan class="cls-5" x="150.56" y="0">s</tspan><tspan class="cls-1" x="198.75" y="0">u</tspan><tspan x="258.79" y="0">s agile</tspan></text>
      <path class="cls-3" d="M215.62,200.38c4.94-28.45,11.84-56.63,19.13-84.75,2.15-8.3,4.58-16.55,6.76-24.84.58-2.21.84-4.51,1.03-6.76.23-2.64-1.92-3.92-3.28-4.39-3.23-1.11-6.88-.2-10.33.29-8.18,1.16-16.13,4.29-23.95,7.88-16.32,7.49-32.01,16.52-47.08,27.03-.73.51-1.22,1.3-1.35,2.17-.94,6.47-1.44,13.09-1.44,19.83,0,43.04,19.95,81.39,51.09,106.39,2.09,1.68,5.14.15,5.13-2.53,0-.02,0-.05,0-.07-.01-13.4,1.94-26.82,4.27-40.24Z"/>
      <path class="cls-3" d="M386.96,142.32c-10.3,5.17-19.84,12.06-28.51,20.34-14.83,14.17-29.44,28.65-43.9,43.31-14.8,15.01-29.22,30.51-44.02,45.51-4.52,4.59-9.65,8.48-14.73,12.27-1.58,1.18-3.22,2.2-4.88,3.13-.08.05-.07.17.02.2,12.82,3.99,26.44,6.14,40.57,6.14,71.22,0,129.66-54.61,135.81-124.23.45-5.05-2.76-9.7-7.6-11.19h0c-10.9-3.33-21.84-.98-32.77,4.51Z"/>
      <path class="cls-3" d="M253.35,211.53c8.65-3.41,18.91-17.43,34.18-38.01,18.87-25.42,37.28-41.01,47.19-49.44,13.02-11.07,26.71-20.64,41.72-27.19,13.62-5.94,27.17-8.67,40.52-7.39,1.09.1,1.94-.95,1.54-1.98C398.86,36.33,349.25,0,291.15,0s-104.01,33.72-125.04,81.93c-.61,1.4,1.01,2.69,2.23,1.77,8.46-6.37,17.17-12.25,26.27-17.41,10.18-5.78,20.61-10.66,31.46-13.72,8.55-2.41,17.06-3.83,25.33-1.66,11.64,3.04,17.59,11.81,18.54,24.96.41,5.64-.02,11.62-.97,17.38-4.79,29.12-.72,9.82-7.63,41.12-10.16,45.98-15.43,64.04-11.73,74.45.93,2.62,3.25,2.91,3.75,2.71Z"/>
    </g>
  </g>
</svg>